<?xml version="1.0" encoding="UTF-8" standalone="no"?>
<svg
   xmlns:dc="http://purl.org/dc/elements/1.1/"
   xmlns:cc="http://creativecommons.org/ns#"
   xmlns:rdf="http://www.w3.org/1999/02/22-rdf-syntax-ns#"
   xmlns:svg="http://www.w3.org/2000/svg"
   xmlns="http://www.w3.org/2000/svg"
   xmlns:sodipodi="http://sodipodi.sourceforge.net/DTD/sodipodi-0.dtd"
   xmlns:inkscape="http://www.inkscape.org/namespaces/inkscape"
   width="175"
   height="175"
   version="1.1"
   id="svg20"
   sodipodi:docname="coderamen.svg"
   inkscape:version="0.92.5 (2060ec1f9f, 2020-04-08)">
  <defs
     id="defs24" />
  <sodipodi:namedview
     pagecolor="#ffffff"
     bordercolor="#666666"
     borderopacity="1"
     objecttolerance="10"
     gridtolerance="10"
     guidetolerance="10"
     inkscape:pageopacity="0"
     inkscape:pageshadow="2"
     inkscape:window-width="1366"
     inkscape:window-height="652"
     id="namedview22"
     showgrid="false"
     inkscape:zoom="3.8064516"
     inkscape:cx="-74.934292"
     inkscape:cy="41.448656"
     inkscape:window-x="0"
     inkscape:window-y="27"
     inkscape:window-maximized="1"
     inkscape:current-layer="svg20" />
  <metadata
     id="metadata28">image/svg+xml<rdf:RDF>
  <cc:Work
     rdf:about="">
    <dc:format>image/svg+xml</dc:format>
    <dc:type
       rdf:resource="http://purl.org/dc/dcmitype/StillImage" />
  </cc:Work>
</rdf:RDF>
</metadata>
  <g
     transform="matrix(0.35259827,0,0,0.35350467,0,-0.0552351)"
     id="g18">
    <title
       id="title8">Layer 1</title>
    <path
       style="fill:#ffcc00"
       inkscape:connector-curvature="0"
       id="path2"
       d="m 80,87.19922 h 96 v 64 H 80 Z m 0,0" />
    <path
       style="fill:#ffff00"
       inkscape:connector-curvature="0"
       id="path4"
       d="m 160,119.19922 c -61.44141,0.004 -114.22266,43.64844 -125.76172,104 H 285.76172 C 274.22266,162.84766 221.44141,119.20313 160,119.19922 Z m 0,0" />
    <path
       style="fill:#ffff00"
       inkscape:connector-curvature="0"
       id="path6"
       d="m 336,127.19922 c -61.44141,0.004 -114.22266,43.64844 -125.76172,104 H 461.76172 C 450.22266,170.84766 397.44141,127.20313 336,127.19922 Z m 0,0" />
    <path
       style="fill:#ff0000"
       inkscape:connector-curvature="0"
       id="path8"
       d="M 32.73733,223.19922 H 6.49905 c 0,82.07812 49.19922,160.55859 112,208.55859 v 47.44141 h 256 v -47.44141 c 62.80078,-48 112,-126.48047 112,-208.55859 z m 0,0" />
    <path
       style="fill:#4d4d4d"
       inkscape:connector-curvature="0"
       id="path10"
       d="m 40,79.19922 h 448 v -24 H 40 Z m 0,0" />
    <path
       style="fill:#4d4d4d"
       inkscape:connector-curvature="0"
       id="path12"
       d="M 39.6875,30.29297 41.35938,54.23828 488.3125,24.10156 486.64062,0.15625 Z m 0,0" />
    <text
       style="font-weight:bold;font-size:250px;font-family:'Times New Roman', Times, serif;text-anchor:start;fill:#ffff00;stroke:#ffff00;stroke-width:37"
       transform="matrix(0.79114981,0,0,0.79986573,7.6732515,99.984647)"
       font-weight="bold"
       xml:space="preserve"
       font-size="250"
       id="svg_1"
       y="362.63083"
       x="64.309196">&lt; / &gt;</text>
    <path
       inkscape:connector-curvature="0"
       id="path20"
       d="M 488,55.19922 H 264.73437 L 488.84766,40.08594 c 2.12109,-0.14063 4.09765,-1.1211 5.49609,-2.72266 1.39844,-1.60156 2.09766,-3.69531 1.95313,-5.8125 L 494.61719,7.60547 c -0.35157,-4.37891 -4.13282,-7.67969 -8.51953,-7.4336 L 39.15234,30.30859 c -2.12109,0.14063 -4.09765,1.1211 -5.49609,2.72266 -1.39844,1.60156 -2.09766,3.69531 -1.95313,5.8125 L 32,87.19922 c 0,4.41797 3.58203,8 8,8 h 32 v 56 c 0,0.11719 0.0625,0.21484 0.0625,0.32812 -21.95312,18.59375 -37.41406,43.69532 -44.14062,71.67188 H 8 c -4.41797,0 -8,3.58203 -8,8 0,77.16015 42.82422,158.20703 112,212.44531 v 43.55469 c 0,4.41797 3.58203,8 8,8 h 256 c 4.41797,0 8,-3.58203 8,-8 v -43.55469 c 69.17578,-54.23828 112,-135.28516 112,-212.44531 0,-4.41797 -3.58203,-8 -8,-8 h -19.92188 c -11.02734,-45.88281 -45.10156,-82.74219 -89.97656,-97.33984 -44.875,-14.59375 -94.11328,-4.82813 -130.02344,25.78515 C 229.77734,136.04687 207.66406,125.58594 184,121.32422 v -26.125 h 304 c 4.41797,0 8,-3.58203 8,-8 v -24 c 0,-4.41797 -3.58203,-8 -8,-8 z m -8.80078,-38.52344 0.5625,8 -430.96094,29.04297 -0.5625,-8 z M 88,95.19922 h 16 v 36.125 c -5.51953,2.51953 -10.86719,5.40625 -16,8.64062 z m 48,0 v 26.125 c -5.41016,1.01172 -10.75391,2.34375 -16,4 v -30.125 z m 24,40 c 53.94531,0.0156 101.25391,36.01172 115.65625,88 H 250.47266 C 236.92969,184.83984 200.67578,159.19141 160,159.19141 c -40.67578,0 -76.92969,25.64843 -90.47266,64.00781 H 44.34375 C 50.58277,200.67819 62.99688,181.15821 79.45059,166.26417 100.97916,146.77633 129.42349,135.20808 160,135.19922 Z m 221.81641,88 c -10.17579,-14.66016 -26.7461,-23.57031 -44.58204,-23.98438 -17.83984,-0.41406 -34.80468,7.71875 -45.64843,21.88672 -2.21875,-8.69531 -5.29297,-17.14844 -9.1875,-25.23047 19.07031,-17.28125 45.29687,-24.3164 70.45312,-18.89843 25.16016,5.41796 46.16406,22.625 56.42969,46.22656 z m -21.89454,0 h -47.85156 c 14.16797,-10.66797 33.6836,-10.66797 47.85156,0 z m -154.10546,0 c -10.41016,-15.03516 -27.53516,-24.00391 -45.82032,-24.00391 -18.28515,0 -35.41015,8.96875 -45.82031,24.00391 H 86.72656 c 12.70313,-29.15625 41.47656,-48.00781 73.27735,-48.00781 31.80078,0 60.57421,18.85156 73.27734,48.00781 z m -21.89454,0 h -47.85156 c 14.16797,-10.66797 33.6836,-10.66797 47.85156,0 z m 187.19922,210.16797 c -1.98047,1.51172 -3.14453,3.85937 -3.14453,6.35156 v 39.48047 H 128 v -39.48047 c 0,-2.49219 -1.16406,-4.83984 -3.14453,-6.35156 C 60.14453,383.99609 19.05469,310.21484 16.16797,239.19922 h 463.66406 c -2.88672,71.01562 -43.97656,144.79687 -108.6875,194.16797 z m 80.53516,-210.16797 h -25.18359 c -10.45704,-29.67578 -34.8125,-52.32422 -65.16797,-60.60156 -30.35157,-8.27735 -62.83594,-1.125 -86.90625,19.13671 -4.33594,-6.74218 -9.26563,-13.08593 -14.72657,-18.95312 31.3125,-25.94922 73.64844,-34.25 112.44141,-22.04297 38.79297,12.20703 68.75,43.25391 79.55859,82.46094 z M 168,119.55078 c -2.65625,-0.15234 -5.3125,-0.35156 -8,-0.35156 -2.6875,0 -5.34375,0.19922 -8,0.35156 V 95.19922 h 16 z M 480,79.19922 H 48 v -8 h 432 z" />
  </g>
</svg>
