<svg version="1" xmlns="http://www.w3.org/2000/svg" width="933.333" height="933.333" viewBox="0 0 700.000000 700.000000"><path d="M625.5 4C553.6 8.9 540.1 9.9 426 17.5 226.1 31 181.3 34 174.5 34.5c-3.8.3-30.6 2.1-59.5 4-66.5 4.4-62.6 3.9-66.7 8L45 49.8v37.6c0 30.8.3 38.2 1.4 40.5 2.9 5.5 3 5.6 30 6.1l25.1.5.3 39.5.2 39.5-7.4 6.7c-23.7 21.5-45.5 57.4-53.2 87.5l-1.8 7.3H24.2c-17 0-20 .8-22.7 6-3.9 7.4.3 49.6 8.1 81.1 19.7 80.6 69.5 158.5 137.2 214.8l11.2 9.3v32c0 35.6.2 36.7 6.5 39.4 2.9 1.2 30.4 1.4 185.7 1.4 142.7 0 182.8-.3 184.7-1.3 1.3-.6 3.4-2.5 4.5-4 2-2.7 2.1-4.3 2.6-35.6l.5-32.8 6.5-5.2c19.6-15.8 46.1-42.5 63.5-64.1 53.4-66.6 85.4-147.9 86.7-220.8.2-10.9 0-12.5-1.9-15-3.4-4.6-5.7-5.2-21.8-5.2h-15l-4.3-13.3c-23.9-74.5-87.9-125.4-166.7-132.8-45.9-4.3-98.4 11.6-133.7 40.4L350 214l-8.2-6.3c-21.3-16.2-43.4-26.8-70.3-33.7l-11-2.8-.3-18.6-.2-18.6h215.5c183.9 0 216-.2 218.3-1.4 5.2-2.7 5.7-5 5.7-27.3V84.8l-3.7-3.4L692 78l-155.2-.2c-85.4 0-153.9-.3-152.3-.5 1.7-.2 71.8-5 155.8-10.7l152.8-10.3 2.9-2.8c1.7-1.6 3.2-4.2 3.5-5.9.3-1.7 0-11.3-.8-21.3-1.5-20-2.3-22.4-8.2-24.9-4.2-1.7 1-1.9-65 2.6zM146.8 159.7l.2 25.3-7.2 3.6c-3.9 2-8.9 4.7-11 6-2.1 1.3-4 2.4-4.3 2.4-.8 0-.6-61.6.2-62.4.4-.3 5.4-.5 11.2-.4l10.6.3.3 25.2zm45-7l.2 18.3-2.7.6c-1.6.3-6.2 1.5-10.5 2.5-4.2 1-8.1 1.9-8.7 1.9-1.2 0-1.6-40.2-.4-41.4.4-.3 5.4-.5 11.2-.4l10.6.3.3 18.2zm45-1.2l.2 17h-22v-34.6l10.8.3 10.7.3.3 17zm12.2 41c35.6 5.1 67.6 20.7 93.4 45.5 20.7 20 34.6 41.8 43.7 68.7l2.8 8.3h-35.6l-1.8-4.8c-4.7-12.4-14.1-27.8-24-39.2-19.8-22.9-49.3-39.4-79.4-44.4-11.9-2-33.2-2.1-44.2-.1-35.1 6.1-65.6 24.6-86.5 52.4-6 8-15.6 25.4-18.2 32.8l-1.1 3.3H80.6c-9.7 0-17.6-.4-17.6-.8 0-2.9 6.9-20.6 12-30.7 19.8-39.3 55.4-70 97.4-83.9 9.8-3.2 26.5-7 35.6-7.9 9.1-1 31.6-.5 41 .8zm257.5 1.5c63.1 13.3 111.5 57.6 130 118.7l.6 2.3h-18c-14.1 0-18.1-.3-18.1-1.3 0-2.5-11.9-25.3-16.6-31.7-22.7-31.2-55.3-51-92.2-56-12.2-1.7-35.8-.7-47.2 1.9-19.2 4.4-37.4 12.8-52.8 24.4-2.9 2.2-5.4 3.8-5.6 3.6-.1-.2-1.8-2.6-3.6-5.3-1.9-2.8-6.2-8.5-9.8-12.8-5.3-6.6-6.2-8.2-5.1-9.4 2.1-2.6 21.8-15.3 29.8-19.3 16-8 35.2-14.1 53.1-16.7 13.9-2 42.5-1.2 55.5 1.6zm-269 54c37.8 4.3 71.4 27.3 88.1 60.2l3.4 6.8h-38.7l-4.4-5.5c-10-12.7-27.4-23.1-44.1-26.6-27.8-5.7-54.5 3-74.1 24.2l-7.4 7.9h-18.6c-15 0-18.7-.3-18.7-1.3 0-1.8 9-16.7 14-23.2 16.2-21 43.4-37.2 69.5-41.4 14.1-2.3 18.9-2.4 31-1.1zm260.8 2c23.9 5.2 47.7 19.9 62.9 38.9 5.5 6.9 15.8 23.5 15.8 25.4 0 .4-8.7.7-19.3.7h-19.3l-3.9-5.2c-8.6-11.1-24.6-21.6-40.1-26-10.3-2.9-29.5-3.1-39.4-.4-15.4 4.2-27.5 11.3-37.7 21.8l-6.1 6.5-1.7-6.1c-.9-3.4-3.7-11.1-6.1-17.3-2.4-6.1-4.4-11.5-4.4-12 .1-1.1 11-9.2 18.4-13.7 22.9-13.8 53.4-18.5 80.9-12.6zm-259 55.6c5.3 1.4 14.4 5.4 18.7 8.3 1 .8-8.8 1.1-32 1.1-37-.1-36.5.1-24-5.8 11.1-5.2 25.6-6.6 37.3-3.6zm253.9 1.7c3.7 1.4 8.4 3.7 10.5 5.1l3.8 2.6h-33.3c-18.3 0-33.1-.4-32.8-.8 1-1.6 13.6-7.5 18.8-8.8 8.6-2.2 24.8-1.2 33 1.9zM418 338.2c0 .2-16.6 53.6-36.8 118.8l-36.8 118.5-30.2.3c-21.4.2-30.2-.1-30.2-.9 0-1.3 71.6-231.4 73-234.7l1-2.2h30c16.5 0 30 .1 30 .2zm-160.2 52.9l-.3 32-23.5 10c-12.9 5.5-31.2 13.2-40.7 17.2-14.8 6.2-16.9 7.3-15.1 8.2 1.2.5 19.5 8.2 40.7 17l38.6 16 .3 32.3c.1 17.7.1 32.2-.1 32.2-.3 0-8.1-3.2-56.7-23.3-20.6-8.5-58.4-24.1-84-34.7-25.6-10.6-47.3-19.6-48.2-20.1-1.6-.9-1.8-2.9-1.8-19.8 0-13.9.3-19.1 1.3-19.8.6-.6 35-15.1 76.2-32.3 41.3-17.2 83.3-34.8 93.5-39.1 10.2-4.3 18.8-7.8 19.3-7.8.4-.1.6 14.3.5 32zM632 437c1.9 1 2 1.9 2 20.3v19.2l-93.7 39.2c-51.6 21.6-94.6 39.5-95.6 39.9-1.6.6-1.7-1.2-1.5-31.6l.3-32.3 23.5-9.9c50.8-21.3 57.1-24.1 56.5-24.6-.3-.3-18.4-8-40.3-17.1l-39.7-16.6-.3-31c-.1-17 0-31.5.2-32.1.3-.8 34.7 12.9 93.5 37.1 51.1 21.1 93.9 38.9 95.1 39.5z"/></svg>